<svg width="103" height="48" viewBox="0 0 103 48" fill="none" xmlns="http://www.w3.org/2000/svg">
<g clip-path="url(#clip0_0_119)">
<path d="M20.0436 22.0915C20.3352 21.7965 20.808 21.7965 21.0995 22.0915L22.2815 23.2872C22.5731 23.5823 22.573 24.0606 22.2815 24.3556L21.0995 25.5514C20.808 25.8464 20.3352 25.8464 20.0436 25.5514L18.8617 24.3556C18.5701 24.0606 18.5701 23.5823 18.8617 23.2872L20.0436 22.0915Z" fill="#3D4B5E"/>
<path d="M4.08694 15.9872C4.67013 15.3971 5.61566 15.3971 6.19884 15.9872L8.56267 18.3787C9.14586 18.9688 9.14586 19.9254 8.56267 20.5154L6.19884 22.907C5.61566 23.497 4.67013 23.497 4.08694 22.907L1.72311 20.5154C1.13993 19.9254 1.13993 18.9688 1.72311 18.3787L4.08694 15.9872Z" fill="#3D4B5E"/>
<path fill-rule="evenodd" clip-rule="evenodd" d="M3.73496 25.2403C4.51254 24.4536 5.77324 24.4536 6.55083 25.2403L9.7026 28.4291C10.4802 29.2158 10.4802 30.4913 9.7026 31.278L7.68331 33.321C7.67453 33.3304 7.66559 33.3397 7.65648 33.3489L4.41694 36.6265C3.91484 37.1345 3.10076 37.1345 2.59866 36.6265L2.55396 36.5813C2.05186 36.0733 2.05186 35.2496 2.55397 34.7416L3.28031 34.0068L0.583185 31.278C-0.194395 30.4913 -0.194395 29.2158 0.583186 28.4291L3.73496 25.2403ZM4.61492 28.1236C4.90651 27.8286 5.37927 27.8286 5.67087 28.1236L6.85278 29.3194C7.14438 29.6144 7.14438 30.0927 6.85278 30.3877L5.67087 31.5835C5.37927 31.8785 4.90651 31.8785 4.61492 31.5835L3.433 30.3877C3.14141 30.0927 3.14141 29.6144 3.433 29.3194L4.61492 28.1236Z" fill="#3D4B5E"/>
<path fill-rule="evenodd" clip-rule="evenodd" d="M42.2047 6.43898C44.8775 6.43898 45.8564 9.6062 44.036 10.9918L37.286 17.8211L44.2187 24.6503C45.2604 25.6983 45.2604 27.3974 44.2187 28.4454L31.0765 40.7751C30.0374 41.8201 28.3537 41.8233 27.3109 40.7821L23.143 37.008L22.0249 38.0884C20.9641 39.1137 19.2783 39.0818 18.2569 38.0166L12.5101 31.9737C11.5007 30.9206 11.5158 29.2481 12.544 28.2135L13.5001 27.2519L11.0567 24.4369C10.0248 23.3874 10.0294 21.6965 11.0668 20.6526L24.4143 7.22468C24.9145 6.72155 25.5935 6.43906 26.3008 6.43898H42.2047ZM26.8024 25.4913C26.5537 25.2373 26.161 25.2373 25.9122 25.4913L23.3408 28.1164C23.2145 28.2453 23.143 28.4237 23.143 28.6099V34.3714C23.143 34.9738 23.8224 35.282 24.231 34.865L25.9122 33.1487C26.161 32.8948 26.5537 32.8948 26.8024 33.1487L28.4837 34.865C28.8923 35.282 29.5716 34.9738 29.5716 34.3714V28.6099C29.5716 28.4237 29.5002 28.2453 29.3739 28.1164L26.8024 25.4913ZM19.4007 28.5527C18.9822 28.5531 18.643 28.8965 18.643 29.32V31.0375C18.643 31.461 18.9822 31.8044 19.4007 31.8047H21.0989C21.5176 31.8046 21.8573 31.4611 21.8573 31.0375V29.32C21.8573 28.8964 21.5176 28.5529 21.0989 28.5527H19.4007ZM31.6151 28.5527C31.1966 28.5531 30.8574 28.8965 30.8574 29.32V31.0375C30.8574 31.461 31.1966 31.8044 31.6151 31.8047H33.3133C33.732 31.8046 34.0717 31.4611 34.0717 31.0375V29.32C34.0717 28.8964 33.732 28.5529 33.3133 28.5527H31.6151ZM16.0678 20.7479C15.4967 20.7479 15.2136 21.4548 15.6214 21.8626L17.2939 23.5356C17.5486 23.7906 17.5486 24.2092 17.2939 24.4642L15.6214 26.1372C15.2136 26.545 15.4967 27.2519 16.0678 27.2519H21.8328C21.9997 27.2519 22.16 27.185 22.2792 27.0658L24.8801 24.4642C25.1351 24.2092 25.1351 23.7906 24.8801 23.5356L22.2792 20.934C22.16 20.8148 21.9997 20.7479 21.8328 20.7479H16.0678ZM30.9139 20.7479C30.7298 20.7479 30.5535 20.8202 30.4261 20.948L27.8314 23.5496C27.5804 23.8012 27.5804 24.1985 27.8314 24.4502L30.4261 27.0518C30.5535 27.1796 30.7298 27.2519 30.9139 27.2519H36.6086C37.204 27.2519 37.5086 26.5646 37.0964 26.1512L35.4001 24.4502C35.149 24.1985 35.149 23.8013 35.4001 23.5496L37.0964 21.8486C37.5086 21.4352 37.204 20.7479 36.6086 20.7479H30.9139ZM24.2448 13.138C23.8417 12.7255 23.143 13.0119 23.143 13.5896V19.4223C23.143 19.5912 23.2091 19.7533 23.327 19.8739L25.8984 22.5054C26.1504 22.7633 26.5642 22.7633 26.8162 22.5054L29.3877 19.8739C29.5055 19.7533 29.5716 19.5912 29.5716 19.4223V13.5896C29.5716 13.0119 28.8729 12.7255 28.4698 13.138L26.8162 14.8301C26.5642 15.0878 26.1504 15.0878 25.8984 14.8301L24.2448 13.138ZM19.4007 16.195C18.9822 16.1954 18.643 16.5388 18.643 16.9623V18.6798C18.643 19.1033 18.9822 19.4467 19.4007 19.4471H21.0989C21.5176 19.4469 21.8573 19.1034 21.8573 18.6798V16.9623C21.8573 16.5387 21.5176 16.1952 21.0989 16.195H19.4007ZM31.6151 16.195C31.1966 16.1954 30.8574 16.5388 30.8574 16.9623V18.6798C30.8574 19.1033 31.1966 19.4467 31.6151 19.4471H33.3133C33.732 19.4469 34.0717 19.1034 34.0717 18.6798V16.9623C34.0717 16.5387 33.732 16.1952 33.3133 16.195H31.6151Z" fill="#3D4B5E"/>
<path d="M31.6151 22.2699C31.9067 21.9749 32.3795 21.9749 32.671 22.2699L33.853 23.4657C34.1446 23.7607 34.1446 24.2391 33.853 24.5341L32.671 25.7298C32.3795 26.0249 31.9067 26.0249 31.6151 25.7298L30.4332 24.5341C30.1416 24.2391 30.1416 23.7607 30.4332 23.4657L31.6151 22.2699Z" fill="#3D4B5E"/>
<path d="M25.8293 16.4163C26.1209 16.1213 26.5937 16.1213 26.8853 16.4163L28.0672 17.6121C28.3588 17.9071 28.3588 18.3854 28.0672 18.6804L26.8853 19.8762C26.5937 20.1712 26.1209 20.1712 25.8293 19.8762L24.6474 18.6804C24.3558 18.3854 24.3558 17.9071 24.6474 17.6121L25.8293 16.4163Z" fill="#3D4B5E"/>
<path d="M25.8293 28.1236C26.1209 27.8286 26.5937 27.8286 26.8853 28.1236L28.0672 29.3194C28.3588 29.6144 28.3588 30.0927 28.0672 30.3877L26.8853 31.5835C26.5937 31.8785 26.1209 31.8785 25.8293 31.5835L24.6474 30.3877C24.3558 30.0927 24.3558 29.6144 24.6474 29.3194L25.8293 28.1236Z" fill="#3D4B5E"/>
<path d="M51.4286 23.9769C51.4286 17.8908 55.2408 12.9149 62.0855 12.9149C69.7101 12.9149 72.5259 17.8908 72.7425 24.2648H54.9809V24.6349C54.9809 25.9097 55.1542 27.02 55.5874 27.9658C56.9303 30.8033 59.443 32.3659 63.4285 32.3659C65.7245 32.3659 68.5837 31.5846 70.8364 30.0631H71.6595V32.736C69.3202 34.6688 65.8545 35.3268 63.4718 35.3268C55.7174 35.3268 51.4286 31.5435 51.4286 23.9769ZM55.1975 21.7152H68.887C68.6704 18.2197 66.1577 15.7113 62.1289 15.7113C57.9701 15.7113 55.8473 17.8908 55.1975 21.7152Z" fill="#3D4B5E"/>
<path d="M79.5213 34.751H75.969V13.3673H79.5213V34.751ZM75.969 9.49128V6H79.5213V9.49128H75.969Z" fill="#3D4B5E"/>
<path d="M83.2825 32.8594V29.6107H84.4521C85.6651 31.2145 88.9142 32.736 91.7301 32.736C95.369 32.736 97.2319 31.5435 97.2319 29.364C97.2319 24.8816 83.3691 26.3209 83.3691 19.0422C83.3691 15.4234 86.2716 12.9972 92.3366 12.9972C95.7589 12.9972 98.2282 14.0252 99.5279 14.7243V18.1375H98.4882C97.6651 17.2328 95.5857 15.5056 92.3366 15.5056C88.5676 15.5056 86.8348 16.7804 86.8348 18.5898C86.8348 23.7713 100.698 21.5507 100.698 29.1995C100.698 32.9828 98.055 35.3268 91.6868 35.3268C88.351 35.3268 85.4052 34.2165 83.2825 32.8594Z" fill="#3D4B5E"/>
</g>
<defs>
<clipPath id="clip0_0_119">
<rect width="102.857" height="36" fill="white" transform="translate(0 6)"/>
</clipPath>
</defs>
</svg>
