<svg width="87" height="32" viewBox="0 0 87 32" fill="none" xmlns="http://www.w3.org/2000/svg">
<g clip-path="url(#clip0_0_44)">
<path d="M66.5879 24.4008H69.536V6.25293H66.5879V24.4008Z" fill="#323334"/>
<path d="M66.5879 0V2.96296H69.536V0H66.5879Z" fill="#323334"/>
<path fill-rule="evenodd" clip-rule="evenodd" d="M55.065 5.87012C49.3846 5.87012 46.2207 10.093 46.2207 15.2582C46.2207 21.6797 49.78 24.8905 56.2155 24.8905C58.193 24.8905 61.0691 24.3321 63.0106 22.6918V20.4234H62.3275C60.4579 21.7147 58.0851 22.3778 56.1795 22.3778C52.872 22.3778 50.7866 21.0515 49.6721 18.6434C49.3127 17.8407 49.1689 16.8985 49.1689 15.8166V15.5025H63.9094C63.7296 10.093 61.3927 5.87012 55.065 5.87012ZM60.7096 13.3387H49.3486C49.8878 10.093 51.6496 8.2433 55.101 8.2433C58.4446 8.2433 60.5299 10.3721 60.7096 13.3387Z" fill="#323334"/>
<path d="M72.6582 22.7942V20.037H73.6289C74.6355 21.3982 77.332 22.6894 79.6689 22.6894C82.6889 22.6894 84.2349 21.6773 84.2349 19.8276C84.2349 18.155 82.0106 17.454 79.5181 16.6684C76.3419 15.6673 72.7301 14.529 72.7301 11.0678C72.7301 7.99658 75.1388 5.9375 80.1723 5.9375C83.0124 5.9375 85.0618 6.80999 86.1404 7.40329V10.2999H85.2775C84.5943 9.53223 82.8687 8.06639 80.1723 8.06639C77.0443 8.06639 75.6062 9.14827 75.6062 10.6839C75.6062 12.6691 77.9512 13.374 80.5238 14.1473C83.6495 15.0867 87.1111 16.1273 87.1111 19.6881C87.1111 22.8987 84.9179 24.8881 79.6329 24.8881C76.8646 24.8881 74.4198 23.9459 72.6582 22.7942Z" fill="#323334"/>
<path fill-rule="evenodd" clip-rule="evenodd" d="M47.4493 28.2422C46.6603 28.2422 46.2207 28.8465 46.2207 29.5856C46.2207 30.5046 46.7151 30.964 47.6091 30.964C47.8838 30.964 48.2834 30.8841 48.553 30.6493V30.3247H48.458C48.1983 30.5094 47.8689 30.6044 47.6041 30.6044C47.1446 30.6044 46.8549 30.4146 46.7001 30.07C46.6502 29.9551 46.6302 29.8203 46.6302 29.6654V29.6206H48.6779C48.6529 28.8465 48.3283 28.2422 47.4493 28.2422ZM48.2333 29.3109H46.6552C46.73 28.8465 46.9748 28.5817 47.4543 28.5817C47.9188 28.5817 48.2084 28.8863 48.2333 29.3109Z" fill="#323334"/>
<path d="M49.2051 30.8947V28.2977H49.5897V28.7522H49.6596C49.8193 28.3926 50.179 28.2578 50.5236 28.2578C51.1128 28.2578 51.5224 28.5474 51.5224 29.2366V30.8947H51.1178V29.2716C51.1178 28.8421 50.8082 28.6174 50.3837 28.6174C50.079 28.6174 49.6097 28.8621 49.6097 29.2466V30.8947H49.2051Z" fill="#323334"/>
<path d="M51.8438 28.2972V28.6269H52.2534L52.2483 30.1402C52.2483 30.7294 52.448 30.8943 52.8926 30.8943H53.2272V30.5796H52.9675C52.7726 30.5796 52.6378 30.5147 52.6378 30.1752L52.6479 28.6269H53.2722V28.2972H52.6528L52.6578 27.4033H52.2583L52.2534 28.2972H51.8438Z" fill="#323334"/>
<path fill-rule="evenodd" clip-rule="evenodd" d="M53.6113 29.5856C53.6113 28.8465 54.0507 28.2422 54.8399 28.2422C55.7189 28.2422 56.0435 28.8465 56.0684 29.6206H54.0208V29.6654C54.0208 29.8203 54.0408 29.9551 54.0907 30.07C54.2455 30.4146 54.5352 30.6044 54.9947 30.6044C55.2593 30.6044 55.589 30.5094 55.8487 30.3247H55.9436V30.6493C55.6738 30.8841 55.2743 30.964 54.9996 30.964C54.1057 30.964 53.6113 30.5046 53.6113 29.5856ZM54.0458 29.3109H55.6239C55.599 28.8863 55.3093 28.5817 54.8448 28.5817C54.3654 28.5817 54.1207 28.8465 54.0458 29.3109Z" fill="#323334"/>
<path d="M57.6573 28.6379H58.0169V28.2783H57.6573C57.3576 28.2783 57.1629 28.438 57.093 28.7527H57.0231V28.2982H56.6035V30.8952H57.038V29.3869C57.068 28.9524 57.3477 28.6379 57.6573 28.6379Z" fill="#323334"/>
<path fill-rule="evenodd" clip-rule="evenodd" d="M58.4688 31.9927V28.297H58.8883V28.6066H58.9382C59.073 28.392 59.3728 28.2422 59.7173 28.2422C60.4914 28.2422 60.9908 28.7616 60.9908 29.5456C60.9908 30.3896 60.4114 30.934 59.7024 30.934C59.4176 30.934 59.053 30.7991 58.9482 30.5244H58.8833V31.9927H58.4688ZM58.8833 30.03C58.8833 30.3746 59.2479 30.5844 59.6325 30.5844C60.1268 30.5844 60.5662 30.2497 60.5662 29.5656C60.5662 28.9463 60.1618 28.5917 59.6573 28.5917C59.2679 28.5917 58.8833 28.9013 58.8833 29.3259V30.03Z" fill="#323334"/>
<path d="M62.5909 28.6379H62.9504V28.2783H62.5909C62.2912 28.2783 62.0964 28.438 62.0264 28.7527H61.9565V28.2982H61.5371V30.8952H61.9716V29.3869C62.0016 28.9524 62.2813 28.6379 62.5909 28.6379Z" fill="#323334"/>
<path d="M63.7983 30.8939H63.3887V28.2969H63.7983V30.8939Z" fill="#323334"/>
<path d="M63.3887 27.6643V27.1299H63.7983V27.6643H63.3887Z" fill="#323334"/>
<path d="M64.3809 30.2706V30.6651C64.6256 30.83 64.9652 30.9648 65.3497 30.9648C66.084 30.9648 66.3886 30.68 66.3886 30.2206C66.3886 29.7112 65.9077 29.5623 65.4736 29.4277C65.1161 29.3171 64.7905 29.2162 64.7905 28.9322C64.7905 28.7123 64.9902 28.5575 65.4247 28.5575C65.7992 28.5575 66.0389 28.7673 66.1339 28.8772H66.2537V28.4627C66.1038 28.3778 65.8192 28.2529 65.4247 28.2529C64.7255 28.2529 64.3909 28.5476 64.3909 28.987C64.3909 29.4824 64.8926 29.6452 65.3337 29.7885C65.6801 29.9009 65.989 30.0012 65.989 30.2406C65.989 30.5054 65.7743 30.6501 65.3548 30.6501C65.0302 30.6501 64.6555 30.4654 64.5157 30.2706H64.3809Z" fill="#323334"/>
<path fill-rule="evenodd" clip-rule="evenodd" d="M67.9493 28.2422C68.8283 28.2422 69.1529 28.8465 69.1779 29.6206H67.1303V29.6654C67.1303 29.8203 67.1502 29.9551 67.2003 30.07C67.3551 30.4146 67.6447 30.6044 68.1041 30.6044C68.3689 30.6044 68.6985 30.5094 68.9582 30.3247H69.053V30.6493C68.7834 30.8841 68.3838 30.964 68.1091 30.964C67.2152 30.964 66.7207 30.5046 66.7207 29.5856C66.7207 28.8465 67.1603 28.2422 67.9493 28.2422ZM67.1552 29.3109H68.7334C68.7084 28.8863 68.4188 28.5817 67.9543 28.5817C67.4749 28.5817 67.2302 28.8465 67.1552 29.3109Z" fill="#323334"/>
<path fill-rule="evenodd" clip-rule="evenodd" d="M73.3029 29.6206C73.2779 28.8465 72.9533 28.2422 72.0743 28.2422C71.2853 28.2422 70.8457 28.8465 70.8457 29.5856C70.8457 30.5046 71.3401 30.964 72.2341 30.964C72.5088 30.964 72.9084 30.8841 73.178 30.6493V30.3247H73.083C72.8235 30.5094 72.4939 30.6044 72.2291 30.6044C71.7697 30.6044 71.4799 30.4146 71.3251 30.07C71.2752 29.9551 71.2552 29.8203 71.2552 29.6654V29.6206H73.3029ZM72.8583 29.3109H71.2802C71.3552 28.8465 71.5998 28.5817 72.0793 28.5817C72.5438 28.5817 72.8334 28.8863 72.8583 29.3109Z" fill="#323334"/>
<path d="M73.7266 30.6651V30.2706H73.8614C74.0012 30.4654 74.3759 30.6501 74.7005 30.6501C75.1199 30.6501 75.3347 30.5054 75.3347 30.2406C75.3347 30.0012 75.0257 29.9009 74.6795 29.7885C74.2383 29.6452 73.7366 29.4824 73.7366 28.987C73.7366 28.5476 74.0712 28.2529 74.7704 28.2529C75.1649 28.2529 75.4495 28.3778 75.5995 28.4627V28.8772H75.4796C75.3846 28.7673 75.1449 28.5575 74.7704 28.5575C74.3359 28.5575 74.136 28.7123 74.136 28.9322C74.136 29.2162 74.4618 29.3171 74.8192 29.4277C75.2534 29.5623 75.7343 29.7112 75.7343 30.2206C75.7343 30.68 75.4295 30.9648 74.6955 30.9648C74.3109 30.9648 73.9713 30.83 73.7266 30.6651Z" fill="#323334"/>
<path d="M76 28.2972V28.6269H76.4095L76.4046 30.1402C76.4046 30.7294 76.6043 30.8943 77.0487 30.8943H77.3834V30.5796H77.1237C76.9289 30.5796 76.7941 30.5147 76.7941 30.1752L76.804 28.6269H77.4283V28.2972H76.809L76.8141 27.4033H76.4145L76.4095 28.2972H76Z" fill="#323334"/>
<path fill-rule="evenodd" clip-rule="evenodd" d="M77.7676 29.6057C77.7676 28.7816 78.2971 28.2373 79.0811 28.2373C79.8702 28.2373 80.4046 28.7666 80.4046 29.5906C80.4046 30.4298 79.8901 30.9641 79.0811 30.9641C78.287 30.9641 77.7676 30.4247 77.7676 29.6057ZM78.1922 29.6057C78.1922 30.2299 78.6017 30.6195 79.0811 30.6195C79.5855 30.6195 79.98 30.2349 79.98 29.6057C79.98 28.9415 79.5905 28.5819 79.0811 28.5819C78.6017 28.5819 78.1922 28.9415 78.1922 29.6057Z" fill="#323334"/>
<path d="M80.9375 28.2977V30.8947H81.3421V29.2466C81.3421 28.8621 81.8116 28.6174 82.1162 28.6174C82.5406 28.6174 82.8504 28.8421 82.8504 29.2716V30.8947H83.2548V29.2366C83.2548 28.5474 82.8453 28.2578 82.256 28.2578C81.9114 28.2578 81.5519 28.3926 81.392 28.7522H81.3221V28.2977H80.9375Z" fill="#323334"/>
<path d="M84.3314 30.8939H83.9219V28.2969H84.3314V30.8939Z" fill="#323334"/>
<path d="M83.9219 27.6643V27.1299H84.3314V27.6643H83.9219Z" fill="#323334"/>
<path fill-rule="evenodd" clip-rule="evenodd" d="M85.8958 29.296C85.2815 29.4407 84.877 29.6454 84.877 30.1798C84.877 30.6293 85.2615 30.964 85.7759 30.964C86.1255 30.964 86.4101 30.854 86.6298 30.5844H86.6949V30.894H87.1044C87.1044 30.6075 87.1055 30.3471 87.1069 30.086V30.0825C87.1081 29.8216 87.1094 29.56 87.1094 29.2709C87.1094 28.6416 86.6898 28.2422 86.0057 28.2422C85.5861 28.2422 85.2915 28.392 85.0667 28.5767V28.9413H85.1417C85.3913 28.7216 85.6061 28.6017 85.9956 28.6017C86.3503 28.6017 86.605 28.8115 86.6749 29.1062L86.6349 29.176C86.4552 29.201 86.0706 29.261 85.8958 29.296ZM86.6998 29.5357L86.6949 30.08C86.6949 30.4346 86.2204 30.6044 85.9457 30.6044C85.5611 30.6044 85.2965 30.4595 85.2965 30.1749C85.2965 29.8902 85.5112 29.7453 86.0255 29.6505C86.1026 29.6334 86.2396 29.6114 86.3839 29.5883C86.4925 29.5709 86.6054 29.5527 86.6998 29.5357Z" fill="#323334"/>
<path d="M18.8582 14.2611C18.5895 13.9924 18.1536 13.9924 17.8849 14.2611L16.7954 15.3506C16.5265 15.6195 16.5265 16.0552 16.7954 16.3241L17.8849 17.4136C18.1536 17.6823 18.5895 17.6823 18.8582 17.4136L19.9477 16.3241C20.2166 16.0552 20.2166 15.6195 19.9477 15.3506L18.8582 14.2611Z" fill="#323334"/>
<path d="M23.2189 9.0893C23.4876 8.8205 23.9235 8.8205 24.1922 9.0893L25.2817 10.1788C25.5506 10.4475 25.5506 10.8834 25.2817 11.1521L24.1922 12.2416C23.9235 12.5105 23.4876 12.5105 23.2189 12.2416L22.1294 11.1521C21.8605 10.8834 21.8605 10.4475 22.1294 10.1788L23.2189 9.0893Z" fill="#323334"/>
<path d="M29.5242 14.4233C29.2555 14.1545 28.8197 14.1545 28.5509 14.4233L27.4614 15.5128C27.1925 15.7816 27.1925 16.2174 27.4614 16.4862L28.5509 17.5756C28.8197 17.8445 29.2555 17.8445 29.5242 17.5756L30.6137 16.4862C30.8826 16.2174 30.8826 15.7816 30.6137 15.5128L29.5242 14.4233Z" fill="#323334"/>
<path d="M24.1922 19.7564C23.9235 19.4875 23.4876 19.4875 23.2189 19.7564L22.1294 20.8458C21.8605 21.1146 21.8605 21.5504 22.1294 21.8192L23.2189 22.9087C23.4876 23.1775 23.9235 23.1775 24.1922 22.9087L25.2817 21.8192C25.5506 21.5504 25.5506 21.1146 25.2817 20.8458L24.1922 19.7564Z" fill="#323334"/>
<path fill-rule="evenodd" clip-rule="evenodd" d="M39.9998 4.14827C41.6782 2.88591 40.7761 0 38.3122 0H23.6515C22.9993 0 22.3739 0.257585 21.9128 0.716103L9.60882 12.9499C8.65223 13.9012 8.6481 15.4421 9.59964 16.3984L11.8516 18.963L10.9705 19.8391C10.0225 20.7818 10.0085 22.3058 10.9393 23.2653L16.2367 28.7708C17.1782 29.7413 18.7324 29.7707 19.7103 28.8363L20.7405 27.8519L24.5827 31.2902C25.5439 32.2391 27.0961 32.2363 28.0539 31.284L40.1685 20.0502C41.1287 19.0954 41.1287 17.5474 40.1685 16.5926L33.7776 10.3704L39.9998 4.14827ZM18.8562 20.1481C19.2423 20.1481 19.5553 20.4612 19.5553 20.8473V22.412C19.5553 22.7981 19.2423 23.1111 18.8562 23.1111H17.2915C16.9054 23.1111 16.5924 22.7981 16.5924 22.412V20.8473C16.5924 20.4612 16.9054 20.1481 17.2915 20.1481H18.8562ZM19.5553 9.588C19.5553 9.20187 19.2423 8.88889 18.8562 8.88889H17.2915C16.9054 8.88889 16.5924 9.20187 16.5924 9.588V11.1527C16.5924 11.5388 16.9054 11.8519 17.2915 11.8519H18.8562C19.2423 11.8519 19.5553 11.5388 19.5553 11.1527V9.588ZM30.1155 8.88889C30.5016 8.88889 30.8146 9.20187 30.8146 9.588V11.1527C30.8146 11.5388 30.5016 11.8519 30.1155 11.8519H28.5507C28.1647 11.8519 27.8516 11.5388 27.8516 11.1527V9.588C27.8516 9.20187 28.1647 8.88889 28.5507 8.88889H30.1155ZM30.8146 20.8473C30.8146 20.4612 30.5016 20.1481 30.1155 20.1481H28.5507C28.1647 20.1481 27.8516 20.4612 27.8516 20.8473V22.412C27.8516 22.7981 28.1647 23.1111 28.5507 23.1111H30.1155C30.5016 23.1111 30.8146 22.7981 30.8146 22.412V20.8473ZM13.8069 17.9473L15.3485 16.4231C15.5835 16.1908 15.5835 15.8092 15.3485 15.5769L13.8069 14.0527C13.431 13.6812 13.6919 13.037 14.2183 13.037H19.5328C19.6867 13.037 19.8345 13.0979 19.9442 13.2065L22.342 15.5769C22.5771 15.8092 22.5771 16.1908 22.342 16.4231L19.9442 18.7935C19.8345 18.9021 19.6867 18.963 19.5328 18.963H14.2183C13.6919 18.963 13.431 18.3188 13.8069 17.9473ZM23.2804 7.64505L21.7562 6.10338C21.3847 5.7275 20.7405 5.98841 20.7405 6.5148V11.8293C20.7405 11.9833 20.8014 12.131 20.91 12.2407L23.2804 14.6385C23.5127 14.8736 23.8943 14.8736 24.1266 14.6385L26.497 12.2407C26.6056 12.131 26.6665 11.9833 26.6665 11.8293V6.5148C26.6665 5.98841 26.0223 5.7275 25.6507 6.10338L24.1266 7.64505C23.8943 7.88007 23.5127 7.88007 23.2804 7.64505ZM33.6027 14.04L32.039 15.5896C31.8076 15.819 31.8076 16.181 32.039 16.4104L33.6027 17.96C33.9829 18.3366 33.7023 18.963 33.1534 18.963H27.9036C27.734 18.963 27.5718 18.8972 27.4543 18.7807L25.0623 16.4104C24.8307 16.181 24.8307 15.819 25.0623 15.5896L27.4543 13.2193C27.5718 13.1028 27.734 13.037 27.9036 13.037H33.1534C33.7023 13.037 33.9829 13.6634 33.6027 14.04ZM24.1139 24.3356L25.6635 25.8993C26.0401 26.2794 26.6665 25.9988 26.6665 25.4499V20.2001C26.6665 20.0305 26.6007 19.8683 26.4842 19.7508L24.1139 17.3588C23.8845 17.1274 23.5225 17.1274 23.2931 17.3588L20.9227 19.7508C20.8063 19.8683 20.7405 20.0305 20.7405 20.2001V25.4499C20.7405 25.9988 21.3669 26.2794 21.7435 25.8993L23.2931 24.3356C23.5225 24.1041 23.8845 24.1041 24.1139 24.3356Z" fill="#323334"/>
<path d="M3.17593 8.70006C3.71352 8.16248 4.5851 8.16248 5.12269 8.70006L7.30168 10.8791C7.83926 11.4166 7.83926 12.2883 7.30168 12.8258L5.12269 15.0047C4.5851 15.5424 3.71352 15.5424 3.17593 15.0047L0.996939 12.8258C0.459354 12.2883 0.459354 11.4166 0.996939 10.8791L3.17593 8.70006Z" fill="#323334"/>
<path fill-rule="evenodd" clip-rule="evenodd" d="M2.84916 17.1314C3.56593 16.4145 4.72806 16.4145 5.44483 17.1314L8.35015 20.0368C9.06694 20.7535 9.06694 21.9156 8.35015 22.6323L6.48876 24.4938C6.48067 24.5024 6.47243 24.5108 6.46403 24.5193L3.47781 27.5055C3.01497 27.9683 2.26455 27.9683 1.80171 27.5055L1.76051 27.4643C1.29766 27.0013 1.29766 26.251 1.76051 25.7882L2.43006 25.1185L-0.0561611 22.6323C-0.772946 21.9156 -0.772946 20.7535 -0.0561611 20.0368L2.84916 17.1314ZM3.6603 19.7584C3.9291 19.4895 4.36489 19.4895 4.63369 19.7584L5.72317 20.8479C5.99197 21.1166 5.99197 21.5525 5.72317 21.8212L4.63369 22.9107C4.36489 23.1796 3.9291 23.1796 3.6603 22.9107L2.57082 21.8212C2.30202 21.5525 2.30202 21.1166 2.57082 20.8479L3.6603 19.7584Z" fill="#323334"/>
</g>
<defs>
<clipPath id="clip0_0_44">
<rect width="87" height="32" fill="white"/>
</clipPath>
</defs>
</svg>
