<svg width="20" height="20" viewBox="0 0 20 20" fill="none" xmlns="http://www.w3.org/2000/svg">
<g clip-path="url(#clip0_0_114)">
<path d="M4.99896 14.1188V8.2123C4.99896 7.48896 4.4029 6.90753 3.66236 6.90753H3.00308C2.26254 6.90753 1.6665 7.49339 1.6665 8.2123V16.7416H5.00345M10.9864 14.1188V12.5479C10.9864 9.4859 15.0098 9.23739 15.0098 12.5479V15.428C15.0098 16.1558 15.6058 16.746 16.3418 16.746H17.0011C17.7371 16.746 18.3332 16.1602 18.3332 15.4324V10.7595C18.3332 5.59401 12.3817 5.7804 10.9819 8.32321V8.22115C10.9819 7.4978 10.3904 6.91194 9.65435 6.91194H8.99959C8.26356 6.91194 7.67203 7.4978 7.67203 8.22115V16.746H10.9864M3.32771 4.91496C2.41557 4.91496 1.67501 4.18721 1.67501 3.29079C1.67501 2.39437 2.41557 1.66663 3.32771 1.66663C4.23984 1.66663 4.98038 2.39437 4.98038 3.29079" stroke="#0E172A" stroke-width="1.67" stroke-linecap="round" stroke-linejoin="round"/>
</g>
<defs>
<clipPath id="clip0_0_114">
<rect width="20" height="20" fill="white"/>
</clipPath>
</defs>
</svg>
